<svg width="52" height="51" viewBox="0 0 52 51" fill="none" xmlns="http://www.w3.org/2000/svg">
<g clip-path="url(#clip0_13_50)">
<path fill-rule="evenodd" clip-rule="evenodd" d="M25.4448 0.666748C11.3745 0.666748 0 12.1251 0 26.3006C0 37.6319 7.28802 47.2235 17.3984 50.6183C18.6625 50.8735 19.1255 50.0668 19.1255 49.3881C19.1255 48.7938 19.0839 46.7569 19.0839 44.6345C12.0057 46.1626 10.5318 41.5787 10.5318 41.5787C9.39427 38.6079 7.70885 37.8444 7.70885 37.8444C5.39219 36.274 7.8776 36.274 7.8776 36.274C10.4474 36.4438 11.7958 38.9053 11.7958 38.9053C14.0703 42.8095 17.7354 41.7063 19.2099 41.0272C19.4203 39.372 20.0948 38.2261 20.8109 37.5897C15.1656 36.9954 9.22604 34.7886 9.22604 24.9423C9.22604 22.1412 10.2365 19.8496 11.8375 18.0673C11.5849 17.4308 10.7 14.799 12.0906 11.2766C12.0906 11.2766 14.2391 10.5975 19.0833 13.9079C21.1573 13.3468 23.2962 13.0613 25.4448 13.0589C27.5932 13.0589 29.7833 13.3563 31.8057 13.9079C36.6505 10.5975 38.799 11.2766 38.799 11.2766C40.1896 14.799 39.3042 17.4308 39.0516 18.0673C40.6948 19.8496 41.6635 22.1412 41.6635 24.9423C41.6635 34.7886 35.724 36.9527 30.0365 37.5897C30.9635 38.3959 31.7635 39.9235 31.7635 42.3428C31.7635 45.7803 31.7219 48.5391 31.7219 49.3876C31.7219 50.0668 32.1854 50.8735 33.449 50.6188C43.5594 47.223 50.8474 37.6319 50.8474 26.3006C50.8891 12.1251 39.4729 0.666748 25.4448 0.666748Z" fill="#072A78"/>
</g>
<defs>
<clipPath id="clip0_13_50">
<rect width="51.0417" height="50" fill="white" transform="translate(0 0.666748)"/>
</clipPath>
</defs>
</svg>
