<svg width="135" height="51" viewBox="0 0 135 51" fill="none" xmlns="http://www.w3.org/2000/svg">
<g clip-path="url(#clip0_11_100)">
<path d="M69.6979 17.2279L76.1207 16.8138C76.2672 17.8611 76.5358 18.6404 76.9754 19.2006C77.6836 20.0774 78.6605 20.5157 79.9548 20.5157C80.9072 20.5157 81.6643 20.2965 82.1771 19.8338C82.6655 19.4685 82.9586 18.884 82.9586 18.2751C82.9586 17.6906 82.6899 17.1304 82.2259 16.7651C81.7375 16.3267 80.5897 15.8884 78.7826 15.4987C75.8276 14.8411 73.703 13.9643 72.4575 12.844C71.212 11.7968 70.5038 10.2624 70.5526 8.63069C70.5526 7.51038 70.8945 6.39007 71.5295 5.46459C72.2621 4.41734 73.2634 3.58929 74.46 3.12655C75.7543 2.56639 77.5615 2.27414 79.8327 2.27414C82.6167 2.27414 84.7413 2.78559 86.2066 3.83283C87.6719 4.85573 88.551 6.51184 88.8196 8.77682L82.4702 9.14214C82.2992 8.16795 81.9573 7.46167 81.3956 6.99893C80.8339 6.53619 80.1013 6.317 79.1489 6.317C78.3674 6.317 77.7813 6.48749 77.3906 6.8041C77.0242 7.09635 76.78 7.53473 76.8045 8.02183C76.8045 8.38714 76.9998 8.72811 77.2929 8.9473C77.6103 9.23956 78.3674 9.50746 79.564 9.751C82.519 10.3842 84.6192 11.0174 85.9135 11.675C87.2078 12.3326 88.1359 13.1363 88.6975 14.0861C89.2836 15.0603 89.5767 16.1806 89.5523 17.3253C89.5523 18.6891 89.1615 20.053 88.3801 21.1977C87.5742 22.391 86.4508 23.3165 85.1321 23.8767C83.7401 24.4855 81.9817 24.8021 79.8815 24.8021C76.1695 24.8021 73.6053 24.0959 72.1644 22.6589C70.7236 21.222 69.8689 19.4198 69.6979 17.2279ZM1.53853 24.4368V2.66381H12.7967C14.8725 2.66381 16.4843 2.8343 17.5832 3.19961C18.6577 3.54058 19.6102 4.24686 20.2451 5.19669C20.9533 6.24394 21.2952 7.46167 21.2708 8.72811C21.3441 10.8713 20.2451 12.9171 18.3647 13.9887C17.6321 14.4027 16.8262 14.695 15.9958 14.8411C16.6064 15.0116 17.2169 15.3039 17.7542 15.6448C18.1693 15.9858 18.5112 16.3755 18.8287 16.7895C19.195 17.2035 19.5125 17.6662 19.7811 18.1533L23.0535 24.4612H15.3853L11.771 17.7637C11.307 16.9113 10.9162 16.3511 10.5499 16.0832C10.0615 15.7422 9.4754 15.5718 8.88929 15.5718H8.30318V24.4125H1.53853V24.4368ZM8.30318 11.4802H11.1605C11.771 11.4315 12.3571 11.3341 12.9432 11.1879C13.3828 11.1149 13.7735 10.8713 14.0421 10.506C14.7015 9.62923 14.6038 8.38714 13.7979 7.63215C13.3584 7.26683 12.5036 7.072 11.2826 7.072H8.30318V11.4802ZM0 43.0924L6.42276 42.6784C6.56928 43.7257 6.83792 44.505 7.2775 45.0652C7.96129 45.9419 8.96255 46.4047 10.2569 46.4047C11.2093 46.4047 11.9664 46.1855 12.4792 45.7227C12.9676 45.3331 13.2607 44.7729 13.2607 44.1641C13.2607 43.5795 12.992 43.0194 12.528 42.6541C12.0396 42.2157 10.8918 41.7773 9.06024 41.3876C6.10528 40.7301 3.98064 39.8533 2.73517 38.733C1.48969 37.6857 0.781476 36.1514 0.830318 34.5196C0.830318 33.3993 1.17221 32.279 1.80716 31.3535C2.5398 30.3063 3.54106 29.4782 4.7377 29.0155C6.03202 28.4553 7.83918 28.1631 10.1103 28.1631C12.8944 28.1631 15.019 28.6745 16.4843 29.7218C17.9495 30.769 18.8043 32.4008 19.0729 34.6658L12.7234 35.0311C12.5525 34.0569 12.2106 33.3506 11.6489 32.8879C11.1116 32.4251 10.3546 32.2059 9.40213 32.2303C8.62066 32.2303 8.03455 32.4008 7.64381 32.7417C7.25308 33.034 7.03329 33.4724 7.05771 33.9595C7.05771 34.3248 7.25308 34.6658 7.54613 34.8849C7.8636 35.1772 8.62066 35.4451 9.81729 35.6887C12.7723 36.3219 14.8725 36.9551 16.1668 37.6127C17.4611 38.2702 18.3891 39.0739 18.9508 40.0238C19.5369 40.998 19.83 42.1183 19.83 43.2386C19.83 44.6024 19.4148 45.9419 18.6577 47.0866C17.8518 48.28 16.7285 49.2055 15.4097 49.7656C14.0177 50.3745 12.2594 50.6911 10.1592 50.6911C6.44718 50.6911 3.88296 49.9848 2.44211 48.5479C1.00127 47.0866 0.195369 45.2844 0 43.0924Z" fill="#072A78"/>
<path d="M32.48 41.3876L38.3899 43.1655C38.0725 44.6512 37.4131 46.0637 36.5095 47.3058C35.6792 48.4018 34.5802 49.2542 33.3348 49.8143C32.0649 50.3745 30.4531 50.6667 28.4994 50.6667C26.1305 50.6667 24.1768 50.3258 22.6872 49.6438C21.173 48.9619 19.8787 47.7442 18.7798 46.015C17.6808 44.2858 17.1436 42.0696 17.1436 39.3662C17.1436 35.7617 18.096 32.9853 20.0252 31.0613C21.9545 29.1373 24.6653 28.1631 28.1819 28.1631C30.9415 28.1631 33.0906 28.7232 34.6779 29.8192C36.2409 30.9395 37.4131 32.6443 38.1946 34.9337L32.2358 36.2488C32.0893 35.7374 31.8695 35.2259 31.5764 34.7875C31.2101 34.2761 30.7461 33.8864 30.1844 33.5942C29.6228 33.3019 28.9878 33.1801 28.3529 33.1801C26.8143 33.1801 25.6421 33.789 24.8362 35.0311C24.2257 35.9322 23.9082 37.3691 23.9082 39.3175C23.9082 41.7286 24.2745 43.3847 25.0072 44.2858C25.7398 45.187 26.7655 45.6253 28.1086 45.6253C29.403 45.6253 30.3798 45.26 31.0392 44.5537C31.6985 43.7987 32.187 42.7515 32.48 41.3876ZM46.278 28.5284H53.0182V36.1514H60.3934V28.5284H67.1824V50.3014H60.3934V41.4851H53.0182V50.3014H46.278V28.5284Z" fill="#072A78"/>
<path d="M66.2546 39.4149C66.2546 35.8591 67.2559 33.0827 69.234 31.11C71.2121 29.1373 73.9961 28.1387 77.5372 28.1387C81.176 28.1387 83.96 29.1129 85.9381 31.0613C87.9162 33.0097 88.893 35.7374 88.893 39.2444C88.893 41.8017 88.4535 43.8718 87.5987 45.5036C86.7684 47.111 85.4741 48.4261 83.8867 49.3029C82.2505 50.204 80.2235 50.6667 77.8058 50.6667C75.3393 50.6667 73.3123 50.2771 71.7006 49.4977C70.0399 48.6697 68.6723 47.3789 67.7688 45.7958C66.7675 44.091 66.2546 41.9721 66.2546 39.4149ZM72.9949 39.4393C72.9949 41.6312 73.41 43.2142 74.2159 44.1884C75.0218 45.1382 76.1452 45.6253 77.5616 45.6253C79.0025 45.6253 80.1258 45.1626 80.9317 44.2128C81.7376 43.2629 82.1284 41.5825 82.1284 39.147C82.1284 37.1012 81.7132 35.5912 80.8829 34.6658C80.0526 33.7159 78.9292 33.2532 77.5128 33.2532C76.2673 33.2045 75.0707 33.7403 74.2404 34.6901C73.41 35.6399 72.9949 37.223 72.9949 39.4393ZM95.8042 39.4149C95.8042 35.8591 96.8055 33.0827 98.7836 31.11C100.762 29.1373 103.546 28.1387 107.087 28.1387C110.726 28.1387 113.534 29.1129 115.488 31.0613C117.441 33.0097 118.443 35.7374 118.443 39.2444C118.443 41.8017 118.003 43.8718 117.148 45.5036C116.318 47.111 115.024 48.4261 113.436 49.3029C111.8 50.204 109.773 50.6667 107.355 50.6667C104.889 50.6667 102.862 50.2771 101.25 49.4977C99.5895 48.6697 98.2219 47.3789 97.3183 45.7958C96.3171 44.091 95.8042 41.9721 95.8042 39.4149ZM102.544 39.4393C102.544 41.6312 102.96 43.2142 103.765 44.1884C104.571 45.1382 105.695 45.6253 107.111 45.6253C108.552 45.6253 109.675 45.1626 110.481 44.2128C111.287 43.2629 111.678 41.5825 111.678 39.147C111.678 37.1012 111.263 35.5912 110.432 34.6658C109.602 33.7159 108.479 33.2532 107.062 33.2532C105.817 33.2045 104.596 33.7403 103.79 34.6901C102.96 35.6399 102.544 37.223 102.544 39.4393Z" fill="#072A78"/>
<path d="M117.734 28.5284H124.475V44.9434H135V50.3014H117.71V28.5284H117.734Z" fill="#072A78"/>
<path d="M110.305 27.2719C117.091 22.172 119.184 13.527 114.979 7.96259C110.774 2.39821 101.865 2.02163 95.0786 7.12149C88.2926 12.2213 86.2001 20.8664 90.4047 26.4308C94.6094 31.9952 103.519 32.3717 110.305 27.2719Z" fill="#FAFBFE"/>
<mask id="mask0_11_100" style="mask-type:luminance" maskUnits="userSpaceOnUse" x="88" y="3" width="30" height="28">
<path d="M110.305 27.2719C117.091 22.172 119.184 13.527 114.979 7.96259C110.774 2.39821 101.865 2.02163 95.0786 7.12149C88.2926 12.2213 86.2001 20.8664 90.4047 26.4308C94.6094 31.9952 103.519 32.3717 110.305 27.2719Z" fill="white"/>
</mask>
<g mask="url(#mask0_11_100)">
<path d="M73.0986 14.437L108.166 -11.9168L132.431 20.1954L97.3639 46.5493L73.0986 14.437Z" fill="#FAFBFE"/>
<mask id="mask1_11_100" style="mask-type:luminance" maskUnits="userSpaceOnUse" x="73" y="-12" width="60" height="59">
<path d="M73.0986 14.437L108.166 -11.9168L132.431 20.1954L97.3639 46.5493L73.0986 14.437Z" fill="white"/>
</mask>
<g mask="url(#mask1_11_100)">
<path d="M110.305 27.2719C117.091 22.172 119.184 13.527 114.979 7.96259C110.774 2.39821 101.865 2.02163 95.0786 7.12149C88.2926 12.2213 86.2001 20.8664 90.4047 26.4308C94.6094 31.9952 103.519 32.3717 110.305 27.2719Z" fill="#FAFBFE"/>
<mask id="mask2_11_100" style="mask-type:luminance" maskUnits="userSpaceOnUse" x="88" y="3" width="30" height="28">
<path d="M110.305 27.2719C117.091 22.172 119.184 13.527 114.979 7.96259C110.774 2.39821 101.865 2.02163 95.0786 7.12149C88.2926 12.2213 86.2001 20.8664 90.4047 26.4308C94.6094 31.9952 103.519 32.3717 110.305 27.2719Z" fill="white"/>
</mask>
<g mask="url(#mask2_11_100)">
<path d="M82.8635 16.5812L107.419 -1.87189L122.659 18.2982L98.1043 36.7514L82.8635 16.5812Z" fill="#FAFBFE"/>
<mask id="mask3_11_100" style="mask-type:luminance" maskUnits="userSpaceOnUse" x="86" y="-1" width="34" height="37">
<path d="M86.4817 28.5919L94.9471 -0.874891L119.3 6.09408L110.834 35.5609L86.4817 28.5919Z" fill="white"/>
</mask>
<g mask="url(#mask3_11_100)">
<path d="M110.309 27.2755C117.093 22.1776 119.182 13.5326 114.976 7.96619C110.769 2.39981 101.859 2.02 95.0753 7.11785C88.2913 12.2157 86.2019 20.8608 90.4085 26.4272C94.6151 31.9935 103.525 32.3733 110.309 27.2755Z" fill="#FAFBFE" stroke="#072A78" stroke-width="4" stroke-miterlimit="10"/>
</g>
<mask id="mask4_11_100" style="mask-type:luminance" maskUnits="userSpaceOnUse" x="86" y="-1" width="34" height="37">
<path d="M86.3625 28.6866L94.8284 -0.78011L119.181 6.18929L110.715 35.6559L86.3625 28.6866Z" fill="white"/>
</mask>
<g mask="url(#mask4_11_100)">
<path d="M82.8635 16.574L107.411 -1.87187L122.659 18.3055L98.1114 36.7514L82.8635 16.574Z" stroke="#072A78" stroke-width="4" stroke-miterlimit="10"/>
</g>
<path d="M110.305 27.2719C117.091 22.172 119.184 13.527 114.979 7.96259C110.774 2.39821 101.865 2.02163 95.0786 7.12149C88.2926 12.2213 86.2001 20.8664 90.4047 26.4308C94.6094 31.9952 103.519 32.3717 110.305 27.2719Z" stroke="#072A78" stroke-width="4" stroke-miterlimit="10"/>
<path d="M82.8635 16.5812L107.419 -1.87189L122.659 18.2982L98.1043 36.7514L82.8635 16.5812Z" fill="#FAFBFE"/>
<mask id="mask5_11_100" style="mask-type:luminance" maskUnits="userSpaceOnUse" x="86" y="-1" width="34" height="37">
<path d="M86.4817 28.5919L94.9471 -0.874891L119.3 6.09408L110.834 35.5609L86.4817 28.5919Z" fill="white"/>
</mask>
<g mask="url(#mask5_11_100)">
<path d="M110.309 27.2755C117.093 22.1776 119.182 13.5326 114.976 7.96619C110.769 2.39981 101.859 2.02 95.0753 7.11785C88.2913 12.2157 86.2019 20.8608 90.4085 26.4272C94.6151 31.9935 103.525 32.3733 110.309 27.2755Z" fill="#FAFBFE" stroke="#072A78" stroke-width="4" stroke-miterlimit="10"/>
</g>
<mask id="mask6_11_100" style="mask-type:luminance" maskUnits="userSpaceOnUse" x="86" y="-1" width="34" height="37">
<path d="M86.3625 28.6866L94.8284 -0.78011L119.181 6.18929L110.715 35.6559L86.3625 28.6866Z" fill="white"/>
</mask>
<g mask="url(#mask6_11_100)">
<path d="M82.8635 16.574L107.411 -1.87187L122.659 18.3055L98.1114 36.7514L82.8635 16.574Z" stroke="#072A78" stroke-width="4" stroke-miterlimit="10"/>
</g>
<path d="M73.0986 14.437L108.166 -11.9168L132.431 20.1954L97.3639 46.5493L73.0986 14.437Z" stroke="#072A78" stroke-width="4" stroke-miterlimit="10"/>
</g>
<path d="M110.305 27.2719C117.091 22.172 119.184 13.527 114.979 7.96259C110.774 2.39821 101.865 2.02163 95.0786 7.12149C88.2926 12.2213 86.2001 20.8664 90.4047 26.4308C94.6094 31.9952 103.519 32.3717 110.305 27.2719Z" stroke="#072A78" stroke-width="4" stroke-miterlimit="10"/>
<path d="M95.8284 15.5961L98.2706 13.8913L101.274 18.1534C101.787 18.8353 102.178 19.5659 102.471 20.3696C102.642 20.9785 102.593 21.6361 102.349 22.2206C102.031 22.9512 101.519 23.5601 100.835 23.9985C100.029 24.5586 99.3451 24.8752 98.759 24.9727C98.1973 25.0701 97.6112 24.9727 97.0739 24.7291C96.4878 24.4369 95.975 24.0228 95.5842 23.487L97.6844 21.5387C97.8554 21.8066 98.0752 22.0501 98.3194 22.2449C98.4903 22.3667 98.6857 22.4398 98.9055 22.4398C99.0765 22.4398 99.2474 22.3667 99.3695 22.2693C99.6137 22.1232 99.7847 21.8309 99.7602 21.5387C99.687 21.1246 99.516 20.7106 99.2474 20.394L95.8284 15.5961ZM103.155 18.2995L105.377 16.546C105.621 16.8382 105.939 17.0574 106.281 17.1792C106.769 17.3253 107.282 17.2279 107.697 16.9113C107.99 16.7165 108.234 16.4486 108.332 16.1076C108.479 15.6692 108.234 15.1821 107.795 15.036C107.722 15.0116 107.648 14.9873 107.575 14.9873C107.282 14.9629 106.769 15.0847 106.012 15.4013C104.767 15.9128 103.79 16.1076 103.057 16.0345C102.349 15.9615 101.69 15.5961 101.299 14.9873C101.006 14.5732 100.859 14.0862 100.835 13.5991C100.835 13.0389 100.981 12.4788 101.299 12.016C101.763 11.3584 102.324 10.7983 103.008 10.3599C104.034 9.65362 104.938 9.31265 105.719 9.31265C106.5 9.31265 107.233 9.67797 107.917 10.433L105.719 12.1621C105.279 11.602 104.449 11.4802 103.887 11.9186L103.814 11.9917C103.57 12.1378 103.399 12.357 103.301 12.6249C103.228 12.8197 103.277 13.0389 103.399 13.2094C103.497 13.3312 103.643 13.4286 103.814 13.4286C104.01 13.4529 104.351 13.3555 104.84 13.1363C106.061 12.6249 106.989 12.3326 107.624 12.2352C108.161 12.1378 108.723 12.1865 109.236 12.4057C109.7 12.6005 110.09 12.9415 110.359 13.3555C110.701 13.8426 110.896 14.4271 110.921 15.036C110.945 15.6692 110.774 16.2781 110.432 16.8139C109.993 17.4714 109.431 18.0316 108.772 18.47C107.428 19.3955 106.33 19.7851 105.45 19.639C104.498 19.4929 103.716 19.0058 103.155 18.2995Z" fill="#072A78"/>
</g>
</g>
</g>
<defs>
<clipPath id="clip0_11_100">
<rect width="135" height="50" fill="white" transform="translate(0 0.666748)"/>
</clipPath>
</defs>
</svg>
