<svg width="50" height="51" viewBox="0 0 50 51" fill="none" xmlns="http://www.w3.org/2000/svg">
<path d="M45.7373 5.37079C45.7373 5.37079 50.3626 3.55279 49.9772 7.96793C49.8487 9.78596 48.6924 16.149 47.793 23.0314L44.7094 43.4191C44.7094 43.4191 44.4525 46.4057 42.1398 46.9252C39.827 47.4446 36.3581 45.1072 35.7156 44.5877C35.2017 44.1982 26.0795 38.3546 22.8674 35.4977C21.968 34.7186 20.9401 33.1603 22.9958 31.3423L36.4866 18.3566C38.0284 16.7983 39.5701 13.1623 33.146 17.5774L15.1585 29.9139C15.1585 29.9139 13.1027 31.2124 9.24834 30.0437L0.89693 27.4466C0.89693 27.4466 -2.18666 25.4987 3.08113 23.5508C15.9294 17.4475 31.7328 11.2143 45.7373 5.37079Z" fill="#072A78"/>
</svg>
